<?xml version="1.0" encoding="UTF-8" standalone="no"?><svg width="50" height="50" viewBox="0 0 50 50" xmlns="http://www.w3.org/2000/svg" xmlns:xlink="http://www.w3.org/1999/xlink"><title>HA - BWC - badge</title><desc>Created with Sketch.</desc><defs><path d="M0 24.733v-15.089c10.124 0 21.914-9.643 21.914-9.643s10.829 9.643 21.914 9.643v15.089c0 19.361-21.914 23.742-21.914 23.742s-21.914-4.559-21.914-23.742z" id="a"/></defs><g fill="none" fill-rule="evenodd"><g transform="translate(3 1)"><mask><use xlink:href="#a"/></mask><use fill="#2A6EBB" xlink:href="#a"/><g fill="#fff"><path d="M26.431 14.113h-11.442l-6.752 8.048h2.377v8.567l-1.813.239s-.874.166-.656 1.105c.184.587.883.56.883.56l1.587-.201v2.373l11.324 2.068 9.002-2.049-.02-12.648h2.655l-7.143-8.064zm-2.316 9.498l2.473-.117.009 3.328-2.5.199.017-3.41zm-12.683 10.507l.007-1.802 4.935-.671s.85.004.779-.956c-.058-.859-.959-.71-.959-.71l-4.755.554.032-8.423 5.145-6.59 5.375 6.59.005 13.935-10.565-1.927zm12.666-2.613l.007-3.419 2.489-.199.016 3.373-2.512.245zm5.58-.544l-2.062.196v-3.335l2.062-.155v3.294zm-2.06-4.207l-.002-3.311 2.062-.067.004 3.245-2.064.134z"/><path d="M18.779 22.191c-.584-.676-1.381-1.115-2.257-1.115l-.141.005c-.867.043-1.626.516-2.155 1.206-.528.699-.843 1.631-.843 2.639l.005.258c.06 1.039.434 1.977 1.014 2.657.579.682 1.376 1.116 2.25 1.116l.142-.004c.868-.043 1.628-.513 2.151-1.209.533-.698.849-1.626.849-2.638l-.005-.258c-.057-1.04-.43-1.976-1.009-2.658zm-.338 5.158c-.437.575-1.022.924-1.679.96h-.109c-.659 0-1.281-.324-1.766-.887-.482-.564-.809-1.368-.856-2.269l-.007-.227c0-.879.275-1.671.708-2.242.439-.577 1.027-.924 1.686-.963l.104-.004c.659 0 1.283.33 1.764.896.488.564.815 1.367.859 2.27l.009.223c0 .879-.277 1.672-.713 2.242z"/><path d="M15.484 25.083c-.059-1.13.304-2.106.854-2.477-.936.066-1.64 1.192-1.568 2.527.068 1.347.891 2.397 1.839 2.349v-.014c-.598-.299-1.068-1.245-1.125-2.385"/><path d="M35.667 32.948c0 .878-.699 1.576-1.587 1.576-.89 0-1.601-.698-1.601-1.576 0-.879.711-1.566 1.608-1.566.881 0 1.58.687 1.58 1.566zm-2.793 0c0 .697.523 1.25 1.213 1.25.672.01 1.183-.553 1.183-1.24 0-.698-.511-1.261-1.201-1.261-.672 0-1.195.563-1.195 1.251zm.956.812h-.36v-1.568c.143-.019.345-.047.599-.047.295 0 .426.047.531.125.096.064.159.182.159.333 0 .192-.144.316-.322.374v.019c.154.047.229.17.274.381.048.239.086.325.114.382h-.377c-.05-.057-.077-.193-.124-.382-.027-.164-.12-.238-.322-.238h-.171v.62zm.013-.879h.17c.195 0 .359-.068.359-.229 0-.143-.102-.239-.332-.239l-.197.018v.451z"/></g></g><path d="M24.844 1c-.983.788-12.173 9.587-21.844 9.587v15.089c0 18.551 20.494 23.426 21.844 23.727v-48.403z" fill="#fff" opacity=".12"/></g></svg>