<?xml version="1.0" encoding="utf-8"?>
<!-- Generator: Adobe Illustrator 15.1.0, SVG Export Plug-In . SVG Version: 6.00 Build 0)  -->
<!DOCTYPE svg PUBLIC "-//W3C//DTD SVG 1.1//EN" "http://www.w3.org/Graphics/SVG/1.1/DTD/svg11.dtd">
<svg version="1.1" id="Layer_1" xmlns="http://www.w3.org/2000/svg" xmlns:xlink="http://www.w3.org/1999/xlink" x="0px" y="0px"
	 width="32px" height="47px" viewBox="0 0 32 47" enable-background="new 0 0 32 47" xml:space="preserve">
<path fill="#2A6EBB" d="M4.73,22.01c0.18,0,0.33,0.07,0.45,0.2l3.9,4.021l3.9-4.021c0.12-0.13,0.27-0.19,0.45-0.19
	c0.18,0,0.33,0.06,0.45,0.19c0.13,0.13,0.19,0.29,0.19,0.48s-0.06,0.36-0.19,0.49L9.3,27.9C9.24,27.96,9.17,28,9.08,28
	s-0.16-0.029-0.22-0.1l-4.59-4.73c-0.13-0.13-0.2-0.29-0.2-0.48s0.06-0.35,0.2-0.48C4.4,22.07,4.55,22.01,4.73,22.01L4.73,22.01z"/>
</svg>
