<?xml version="1.0" encoding="utf-8"?>
<!-- Generator: Adobe Illustrator 15.1.0, SVG Export Plug-In . SVG Version: 6.00 Build 0)  -->
<!DOCTYPE svg PUBLIC "-//W3C//DTD SVG 1.1//EN" "http://www.w3.org/Graphics/SVG/1.1/DTD/svg11.dtd">
<svg version="1.1" id="Layer_2_2_" xmlns="http://www.w3.org/2000/svg" xmlns:xlink="http://www.w3.org/1999/xlink" x="0px" y="0px"
	 width="392px" height="50px" viewBox="0 0 392 50" enable-background="new 0 0 392 50" xml:space="preserve">
<polygon points="0,11.34 0,37.39 15.28,37.39 15.28,33.39 4.85,33.39 4.85,11.34 "/>
<g>
	<g>
		<g>
			<defs>
				<rect id="SVGID_1_" y="11" width="392" height="30"/>
			</defs>
			<clipPath id="SVGID_2_">
				<use xlink:href="#SVGID_1_"  overflow="visible"/>
			</clipPath>
			<path clip-path="url(#SVGID_2_)" d="M29.09,33.21c0.94,0,1.77-0.15,2.51-0.46c0.74-0.31,1.36-0.74,1.87-1.3
				c0.51-0.56,0.9-1.23,1.17-2.03c0.27-0.79,0.4-1.68,0.4-2.67V11.34h4.85v15.44c0,1.53-0.25,2.95-0.75,4.25s-1.22,2.42-2.15,3.37
				c-0.94,0.95-2.07,1.68-3.4,2.21c-1.33,0.53-2.83,0.79-4.5,0.79s-3.17-0.26-4.5-0.79c-1.33-0.53-2.47-1.27-3.4-2.21
				c-0.93-0.95-1.65-2.07-2.15-3.37s-0.75-2.72-0.75-4.25V11.34h4.85v15.39c0,0.99,0.13,1.88,0.4,2.67
				c0.27,0.79,0.66,1.47,1.16,2.04c0.5,0.56,1.13,1,1.86,1.31C27.32,33.05,28.15,33.21,29.09,33.21"/>
		</g>
	</g>
	<g>
		<g>
			<defs>
				<rect id="SVGID_3_" y="11" width="392" height="30"/>
			</defs>
			<clipPath id="SVGID_4_">
				<use xlink:href="#SVGID_3_"  overflow="visible"/>
			</clipPath>
			<path clip-path="url(#SVGID_4_)" d="M52.01,23.98l-8.3-12.65h4.83c0.34,0,0.58,0.04,0.73,0.13s0.29,0.24,0.4,0.44l5.93,9.56
				c0.06-0.16,0.13-0.31,0.2-0.46c0.07-0.15,0.16-0.3,0.25-0.46L61.47,12c0.27-0.45,0.61-0.67,1.03-0.67h4.65l-8.4,12.45l8.63,13.6
				h-4.85c-0.32,0-0.58-0.08-0.78-0.25s-0.36-0.36-0.5-0.58l-6.03-9.98c-0.05,0.14-0.1,0.28-0.16,0.41
				c-0.06,0.12-0.12,0.24-0.18,0.35l-5.78,9.22c-0.13,0.21-0.29,0.39-0.49,0.57c-0.19,0.17-0.43,0.26-0.72,0.26h-4.54L52.01,23.98z"
				/>
		</g>
	</g>
	<g>
		<g>
			<defs>
				<rect id="SVGID_5_" y="11" width="392" height="30"/>
			</defs>
			<clipPath id="SVGID_6_">
				<use xlink:href="#SVGID_5_"  overflow="visible"/>
			</clipPath>
			<path clip-path="url(#SVGID_6_)" d="M81.7,33.21c0.94,0,1.77-0.15,2.51-0.46c0.74-0.31,1.36-0.74,1.88-1.3
				c0.51-0.56,0.9-1.23,1.17-2.03c0.27-0.79,0.41-1.68,0.41-2.67V11.34h4.85v15.44c0,1.53-0.25,2.95-0.75,4.25s-1.22,2.42-2.15,3.37
				c-0.94,0.95-2.07,1.68-3.41,2.21c-1.34,0.53-2.83,0.79-4.5,0.79s-3.17-0.26-4.5-0.79c-1.33-0.53-2.47-1.27-3.4-2.21
				c-0.93-0.95-1.65-2.07-2.14-3.37c-0.5-1.3-0.75-2.72-0.75-4.25V11.34h4.85v15.39c0,0.99,0.13,1.88,0.4,2.67
				c0.27,0.79,0.66,1.47,1.16,2.04c0.5,0.56,1.13,1,1.86,1.31C79.93,33.05,80.77,33.21,81.7,33.21"/>
		</g>
	</g>
	<g>
		<g>
			<defs>
				<rect id="SVGID_7_" y="11" width="392" height="30"/>
			</defs>
			<clipPath id="SVGID_8_">
				<use xlink:href="#SVGID_7_"  overflow="visible"/>
			</clipPath>
			<path clip-path="url(#SVGID_8_)" d="M103.71,27.21v10.18h-4.85V11.34h7.95c1.78,0,3.3,0.18,4.57,0.55
				c1.27,0.37,2.31,0.88,3.12,1.54c0.81,0.66,1.41,1.45,1.78,2.37c0.38,0.92,0.57,1.93,0.57,3.04c0,0.88-0.13,1.71-0.39,2.49
				c-0.26,0.78-0.63,1.49-1.12,2.12c-0.49,0.64-1.09,1.2-1.8,1.68c-0.72,0.48-1.53,0.86-2.44,1.15c0.61,0.35,1.14,0.85,1.58,1.49
				l6.52,9.62h-4.36c-0.42,0-0.78-0.08-1.07-0.25c-0.29-0.17-0.54-0.41-0.75-0.72l-5.48-8.34c-0.21-0.31-0.43-0.53-0.68-0.67
				c-0.25-0.14-0.61-0.2-1.09-0.2H103.71z M103.71,23.73h3.03c0.91,0,1.71-0.11,2.39-0.34c0.68-0.23,1.24-0.54,1.67-0.95
				c0.43-0.41,0.77-0.88,0.98-1.43c0.22-0.55,0.33-1.16,0.33-1.82c0-1.32-0.44-2.34-1.31-3.04c-0.87-0.71-2.2-1.06-3.99-1.06h-3.1
				V23.73z"/>
		</g>
	</g>
	<g>
		<g>
			<defs>
				<rect id="SVGID_9_" y="11" width="392" height="30"/>
			</defs>
			<clipPath id="SVGID_10_">
				<use xlink:href="#SVGID_9_"  overflow="visible"/>
			</clipPath>
			<path clip-path="url(#SVGID_10_)" d="M133.43,27.26v10.12h-4.85V27.26l-9.49-15.92h4.27c0.42,0,0.75,0.1,1,0.31
				c0.24,0.21,0.45,0.46,0.62,0.78l4.77,8.7c0.28,0.52,0.52,1.01,0.72,1.47c0.2,0.46,0.39,0.92,0.56,1.36
				c0.16-0.46,0.33-0.92,0.53-1.38c0.2-0.46,0.43-0.95,0.71-1.45l4.74-8.7c0.13-0.26,0.33-0.51,0.6-0.74
				c0.26-0.23,0.6-0.34,1.01-0.34h4.29L133.43,27.26z"/>
		</g>
	</g>
	<g>
		<g>
			<defs>
				<rect id="SVGID_11_" y="11" width="392" height="30"/>
			</defs>
			<clipPath id="SVGID_12_">
				<use xlink:href="#SVGID_11_"  overflow="visible"/>
			</clipPath>
			<path clip-path="url(#SVGID_12_)" d="M148.98,25.86v11.53h-1.84V11.9h6.5c2.94,0,5.14,0.57,6.59,1.7c1.45,1.13,2.18,2.8,2.18,5
				c0,0.97-0.17,1.86-0.5,2.67c-0.34,0.81-0.82,1.51-1.45,2.12c-0.63,0.61-1.39,1.1-2.28,1.49c-0.89,0.39-1.89,0.65-3.01,0.77
				c0.29,0.18,0.55,0.42,0.78,0.72l8.77,11.02h-1.6c-0.19,0-0.36-0.04-0.5-0.11c-0.14-0.07-0.27-0.19-0.41-0.36l-8.16-10.34
				c-0.21-0.26-0.42-0.45-0.66-0.56c-0.24-0.11-0.6-0.16-1.09-0.16H148.98z M148.98,24.49h4.43c1.13,0,2.14-0.13,3.04-0.41
				c0.89-0.27,1.65-0.66,2.27-1.16c0.62-0.5,1.09-1.11,1.41-1.82c0.33-0.71,0.49-1.51,0.49-2.4c0-1.81-0.6-3.16-1.79-4.03
				c-1.19-0.88-2.92-1.32-5.19-1.32h-4.67L148.98,24.49L148.98,24.49z"/>
		</g>
	</g>
	<g>
		<g>
			<defs>
				<rect id="SVGID_13_" y="11" width="392" height="30"/>
			</defs>
			<clipPath id="SVGID_14_">
				<use xlink:href="#SVGID_13_"  overflow="visible"/>
			</clipPath>
			<polygon clip-path="url(#SVGID_14_)" points="185.5,11.9 185.5,13.43 172.08,13.43 172.08,23.73 183.25,23.73 183.25,25.23 
				172.08,25.23 172.08,35.85 185.5,35.85 185.5,37.39 170.23,37.39 170.23,11.9 			"/>
		</g>
	</g>
	<g>
		<g>
			<defs>
				<rect id="SVGID_15_" y="11" width="392" height="30"/>
			</defs>
			<clipPath id="SVGID_16_">
				<use xlink:href="#SVGID_15_"  overflow="visible"/>
			</clipPath>
			<path clip-path="url(#SVGID_16_)" d="M192.93,11.96c0.1,0.04,0.2,0.13,0.31,0.28l16.5,22.09c-0.04-0.36-0.05-0.71-0.05-1.04V11.9
				h1.62v25.49h-0.88c-0.28,0-0.5-0.12-0.67-0.36L193.18,14.9c0.04,0.36,0.06,0.7,0.06,1.03v21.46h-1.6V11.9h0.9
				C192.7,11.9,192.83,11.92,192.93,11.96"/>
		</g>
	</g>
	<g>
		<g>
			<defs>
				<rect id="SVGID_17_" y="11" width="392" height="30"/>
			</defs>
			<clipPath id="SVGID_18_">
				<use xlink:href="#SVGID_17_"  overflow="visible"/>
			</clipPath>
			<polygon clip-path="url(#SVGID_18_)" points="236.5,11.9 236.5,13.46 227.54,13.46 227.54,37.39 225.71,37.39 225.71,13.46 
				216.7,13.46 216.7,11.9 			"/>
		</g>
	</g>
	<g>
		<g>
			<defs>
				<rect id="SVGID_19_" y="11" width="392" height="30"/>
			</defs>
			<clipPath id="SVGID_20_">
				<use xlink:href="#SVGID_19_"  overflow="visible"/>
			</clipPath>
			<path clip-path="url(#SVGID_20_)" d="M258.1,37.39h-1.42c-0.17,0-0.31-0.04-0.42-0.13c-0.11-0.09-0.19-0.21-0.25-0.35L253,29.5
				h-12.52l-2.99,7.4c-0.05,0.13-0.13,0.25-0.25,0.34c-0.12,0.1-0.26,0.14-0.43,0.14h-1.41l10.43-25.48h1.84L258.1,37.39z
				 M241.04,28.13h11.42l-5.21-12.88c-0.08-0.2-0.17-0.43-0.25-0.69c-0.08-0.26-0.17-0.53-0.25-0.82c-0.08,0.29-0.17,0.56-0.25,0.82
				c-0.08,0.26-0.17,0.49-0.25,0.71L241.04,28.13z"/>
		</g>
	</g>
	<g>
		<g>
			<defs>
				<rect id="SVGID_21_" y="11" width="392" height="30"/>
			</defs>
			<clipPath id="SVGID_22_">
				<use xlink:href="#SVGID_21_"  overflow="visible"/>
			</clipPath>
			<polygon clip-path="url(#SVGID_22_)" points="265.16,35.82 277.25,35.82 277.25,37.39 263.33,37.39 263.33,11.9 265.16,11.9 			
				"/>
		</g>
	</g>
	<g>
		<g>
			<defs>
				<rect id="SVGID_23_" y="11" width="392" height="30"/>
			</defs>
			<clipPath id="SVGID_24_">
				<use xlink:href="#SVGID_23_"  overflow="visible"/>
			</clipPath>
			<path clip-path="url(#SVGID_24_)" d="M295.82,14.99c-0.11,0.21-0.26,0.31-0.47,0.31c-0.16,0-0.36-0.11-0.61-0.33
				c-0.25-0.22-0.58-0.47-1-0.74s-0.95-0.52-1.58-0.75s-1.41-0.34-2.34-0.34s-1.74,0.13-2.45,0.4c-0.71,0.26-1.3,0.62-1.77,1.08
				c-0.48,0.46-0.84,0.98-1.08,1.59c-0.25,0.6-0.37,1.23-0.37,1.89c0,0.86,0.18,1.58,0.55,2.14c0.37,0.56,0.85,1.04,1.45,1.44
				c0.6,0.4,1.28,0.73,2.05,1c0.77,0.27,1.55,0.54,2.35,0.8c0.81,0.27,1.59,0.56,2.35,0.87c0.76,0.32,1.45,0.72,2.05,1.2
				c0.6,0.48,1.08,1.07,1.45,1.77c0.37,0.7,0.55,1.58,0.55,2.62c0,1.07-0.18,2.08-0.55,3.02c-0.37,0.94-0.9,1.76-1.59,2.46
				c-0.7,0.7-1.55,1.25-2.56,1.65c-1.01,0.4-2.16,0.6-3.46,0.6c-1.68,0-3.13-0.3-4.34-0.89c-1.21-0.59-2.28-1.41-3.19-2.44l0.5-0.79
				c0.14-0.18,0.31-0.27,0.5-0.27c0.11,0,0.25,0.07,0.42,0.22c0.17,0.14,0.37,0.32,0.61,0.53c0.24,0.21,0.53,0.44,0.87,0.68
				c0.34,0.25,0.73,0.47,1.17,0.68c0.44,0.21,0.96,0.39,1.53,0.53c0.58,0.14,1.23,0.22,1.97,0.22c1.01,0,1.91-0.15,2.71-0.46
				c0.79-0.31,1.46-0.72,2.01-1.25c0.55-0.53,0.96-1.16,1.25-1.88c0.29-0.72,0.43-1.5,0.43-2.33c0-0.9-0.18-1.64-0.55-2.22
				c-0.37-0.58-0.85-1.07-1.45-1.46c-0.6-0.39-1.28-0.72-2.05-0.98c-0.76-0.27-1.55-0.52-2.35-0.78c-0.81-0.25-1.59-0.53-2.35-0.85
				c-0.76-0.31-1.45-0.71-2.05-1.2c-0.6-0.49-1.09-1.09-1.45-1.82c-0.37-0.73-0.55-1.64-0.55-2.73c0-0.85,0.16-1.67,0.49-2.47
				s0.8-1.49,1.42-2.1c0.63-0.61,1.4-1.09,2.32-1.46c0.92-0.37,1.97-0.55,3.15-0.55c1.32,0,2.51,0.21,3.56,0.63s2.01,1.06,2.88,1.93
				L295.82,14.99z"/>
		</g>
	</g>
	<g>
		<g>
			<defs>
				<rect id="SVGID_25_" y="11" width="392" height="30"/>
			</defs>
			<clipPath id="SVGID_26_">
				<use xlink:href="#SVGID_25_"  overflow="visible"/>
			</clipPath>
			<polygon clip-path="url(#SVGID_26_)" fill="#3D3D3D" points="306.59,24.66 306.59,29.75 312.48,29.75 312.48,24.66 314.07,24.66 
				314.07,36.83 312.48,36.83 312.48,31.13 306.59,31.13 306.59,36.83 305.02,36.83 305.02,24.66 			"/>
		</g>
	</g>
	<g>
		<g>
			<defs>
				<rect id="SVGID_27_" y="11" width="392" height="30"/>
			</defs>
			<clipPath id="SVGID_28_">
				<use xlink:href="#SVGID_27_"  overflow="visible"/>
			</clipPath>
			<path clip-path="url(#SVGID_28_)" fill="#3D3D3D" d="M324.23,32.39c0,3.23-2.24,4.64-4.35,4.64c-2.37,0-4.19-1.73-4.19-4.5
				c0-2.93,1.92-4.64,4.34-4.64C322.54,27.89,324.23,29.72,324.23,32.39 M317.3,32.48c0,1.92,1.1,3.36,2.66,3.36
				c1.52,0,2.65-1.43,2.65-3.4c0-1.48-0.74-3.36-2.62-3.36C318.11,29.08,317.3,30.82,317.3,32.48"/>
		</g>
	</g>
	<g>
		<g>
			<defs>
				<rect id="SVGID_29_" y="11" width="392" height="30"/>
			</defs>
			<clipPath id="SVGID_30_">
				<use xlink:href="#SVGID_29_"  overflow="visible"/>
			</clipPath>
			<path clip-path="url(#SVGID_30_)" fill="#3D3D3D" d="M325.82,30.46c0-0.9-0.02-1.64-0.07-2.37h1.39l0.07,1.41h0.05
				c0.49-0.83,1.3-1.61,2.75-1.61c1.19,0,2.09,0.72,2.47,1.75h0.04c0.27-0.49,0.62-0.87,0.98-1.14c0.52-0.4,1.1-0.61,1.93-0.61
				c1.16,0,2.87,0.76,2.87,3.79v5.15h-1.55v-4.95c0-1.68-0.62-2.69-1.9-2.69c-0.9,0-1.61,0.67-1.88,1.45
				c-0.07,0.22-0.12,0.5-0.12,0.79v5.4h-1.55V31.6c0-1.39-0.61-2.4-1.83-2.4c-0.99,0-1.71,0.79-1.97,1.59
				c-0.09,0.24-0.13,0.51-0.13,0.78v5.28h-1.55V30.46L325.82,30.46z"/>
		</g>
	</g>
	<g>
		<g>
			<defs>
				<rect id="SVGID_31_" y="11" width="392" height="30"/>
			</defs>
			<clipPath id="SVGID_32_">
				<use xlink:href="#SVGID_31_"  overflow="visible"/>
			</clipPath>
			<path clip-path="url(#SVGID_32_)" fill="#3D3D3D" d="M341.39,32.67c0.04,2.19,1.44,3.1,3.06,3.1c1.16,0,1.86-0.2,2.47-0.46
				l0.28,1.16c-0.57,0.26-1.55,0.57-2.97,0.57c-2.75,0-4.39-1.82-4.39-4.51c0-2.69,1.59-4.81,4.18-4.81c2.91,0,3.68,2.56,3.68,4.2
				c0,0.33-0.04,0.59-0.05,0.76L341.39,32.67L341.39,32.67z M346.14,31.51c0.02-1.03-0.42-2.64-2.25-2.64
				c-1.64,0-2.36,1.51-2.49,2.64H346.14z"/>
		</g>
	</g>
	<g>
		<g>
			<defs>
				<rect id="SVGID_33_" y="11" width="392" height="30"/>
			</defs>
			<clipPath id="SVGID_34_">
				<use xlink:href="#SVGID_33_"  overflow="visible"/>
			</clipPath>
			<path clip-path="url(#SVGID_34_)" fill="#3D3D3D" d="M351.35,32.93l-1.29,3.91h-1.66l4.22-12.42h1.94l4.24,12.42h-1.71
				l-1.33-3.91H351.35z M355.42,31.68l-1.21-3.58c-0.28-0.81-0.46-1.55-0.64-2.27h-0.04c-0.19,0.74-0.39,1.49-0.63,2.25l-1.22,3.59
				L355.42,31.68L355.42,31.68z"/>
		</g>
	</g>
	<g>
		<g>
			<defs>
				<rect id="SVGID_35_" y="11" width="392" height="30"/>
			</defs>
			<clipPath id="SVGID_36_">
				<use xlink:href="#SVGID_35_"  overflow="visible"/>
			</clipPath>
			<path clip-path="url(#SVGID_36_)" fill="#3D3D3D" d="M360.39,27.92l1.18,4.53c0.26,0.99,0.5,1.92,0.66,2.84h0.06
				c0.2-0.9,0.5-1.86,0.79-2.84l1.45-4.53h1.36l1.38,4.46c0.33,1.07,0.59,2.01,0.79,2.91h0.05c0.15-0.9,0.39-1.84,0.68-2.89
				l1.27-4.48h1.6l-2.87,8.92h-1.47l-1.36-4.26c-0.31-1-0.57-1.88-0.79-2.93h-0.04c-0.22,1.07-0.5,1.99-0.81,2.95l-1.44,4.24h-1.47
				l-2.69-8.92H360.39z"/>
		</g>
	</g>
	<g>
		<g>
			<defs>
				<rect id="SVGID_37_" y="11" width="392" height="30"/>
			</defs>
			<clipPath id="SVGID_38_">
				<use xlink:href="#SVGID_37_"  overflow="visible"/>
			</clipPath>
			<path clip-path="url(#SVGID_38_)" fill="#3D3D3D" d="M379.08,34.7c0,0.77,0.04,1.53,0.15,2.14h-1.47l-0.13-1.12h-0.05
				c-0.5,0.7-1.46,1.33-2.73,1.33c-1.81,0-2.73-1.27-2.73-2.56c0-2.16,1.92-3.34,5.36-3.32v-0.18c0-0.74-0.2-2.06-2.03-2.06
				c-0.83,0-1.7,0.26-2.32,0.66l-0.37-1.07c0.74-0.48,1.81-0.79,2.93-0.79c2.73,0,3.39,1.86,3.39,3.65V34.7L379.08,34.7z
				 M377.51,32.28c-1.77-0.04-3.78,0.27-3.78,2.01c0,1.05,0.7,1.55,1.53,1.55c1.16,0,1.9-0.74,2.16-1.49
				c0.06-0.17,0.09-0.35,0.09-0.52V32.28z"/>
		</g>
	</g>
	<g>
		<g>
			<defs>
				<rect id="SVGID_39_" y="11" width="392" height="30"/>
			</defs>
			<clipPath id="SVGID_40_">
				<use xlink:href="#SVGID_39_"  overflow="visible"/>
			</clipPath>
			<path clip-path="url(#SVGID_40_)" fill="#3D3D3D" d="M381.71,27.92l1.95,5.27c0.2,0.59,0.42,1.29,0.57,1.82h0.04
				c0.17-0.53,0.35-1.21,0.57-1.86l1.77-5.23h1.71l-2.43,6.36c-1.16,3.06-1.95,4.38-3.06,5.34c-0.79,0.7-1.58,0.98-1.99,1.05
				l-0.41-1.36c0.41-0.13,0.94-0.39,1.42-0.79c0.44-0.35,0.99-0.98,1.36-1.81c0.07-0.17,0.13-0.29,0.13-0.39
				c0-0.09-0.04-0.22-0.11-0.42l-3.3-7.97L381.71,27.92L381.71,27.92L381.71,27.92z"/>
		</g>
	</g>
	<g>
		<g>
			<defs>
				<rect id="SVGID_41_" y="11" width="392" height="30"/>
			</defs>
			<clipPath id="SVGID_42_">
				<use xlink:href="#SVGID_41_"  overflow="visible"/>
			</clipPath>
			<path clip-path="url(#SVGID_42_)" fill="#3D3D3D" d="M392,29.01c0,0.66-0.53,1.18-1.2,1.18c-0.67,0-1.2-0.52-1.2-1.18
				s0.53-1.17,1.21-1.17C391.47,27.84,392,28.36,392,29.01 M389.9,29.01c0,0.52,0.39,0.93,0.91,0.93c0.51,0.01,0.89-0.41,0.89-0.93
				c0-0.52-0.39-0.94-0.91-0.94C390.29,28.08,389.9,28.5,389.9,29.01 M390.62,29.62h-0.27v-1.17c0.11-0.01,0.26-0.04,0.45-0.04
				c0.22,0,0.32,0.04,0.4,0.09c0.07,0.05,0.12,0.14,0.12,0.25c0,0.14-0.11,0.24-0.24,0.28v0.01c0.11,0.04,0.17,0.13,0.21,0.29
				c0.04,0.18,0.06,0.24,0.09,0.29h-0.29c-0.04-0.04-0.06-0.14-0.09-0.29c-0.02-0.12-0.09-0.18-0.24-0.18h-0.13L390.62,29.62
				L390.62,29.62z M390.62,28.96h0.13c0.15,0,0.27-0.05,0.27-0.17c0-0.11-0.08-0.18-0.25-0.18c-0.07,0-0.12,0.01-0.15,0.01V28.96z"
				/>
		</g>
	</g>
	<g>
		<g>
			<defs>
				<rect id="SVGID_43_" y="11" width="392" height="30"/>
			</defs>
			<clipPath id="SVGID_44_">
				<use xlink:href="#SVGID_43_"  overflow="visible"/>
			</clipPath>
			<path clip-path="url(#SVGID_44_)" fill="#999999" d="M305.37,20.65v-5.14l-0.81-0.05c-0.11-0.01-0.17-0.05-0.17-0.14v-0.23h0.97
				v-0.72c0-0.33,0.04-0.61,0.13-0.86c0.08-0.25,0.2-0.46,0.36-0.62c0.15-0.17,0.34-0.29,0.56-0.37c0.22-0.08,0.46-0.12,0.72-0.12
				c0.12,0,0.24,0.01,0.36,0.03c0.12,0.02,0.23,0.05,0.32,0.09l-0.02,0.26c0,0.06-0.04,0.08-0.11,0.08c-0.05,0-0.11-0.01-0.19-0.02
				c-0.08-0.01-0.17-0.02-0.29-0.02c-0.19,0-0.36,0.03-0.52,0.08c-0.16,0.06-0.3,0.14-0.41,0.27c-0.12,0.12-0.21,0.29-0.27,0.48
				c-0.06,0.2-0.09,0.44-0.09,0.73v0.71h1.86v0.41h-1.85v5.15H305.37z"/>
		</g>
	</g>
	<g>
		<g>
			<defs>
				<rect id="SVGID_45_" y="11" width="392" height="30"/>
			</defs>
			<clipPath id="SVGID_46_">
				<use xlink:href="#SVGID_45_"  overflow="visible"/>
			</clipPath>
			<path clip-path="url(#SVGID_46_)" fill="#999999" d="M308.87,20.65v-5.74h0.29c0.06,0,0.11,0.01,0.14,0.04
				c0.03,0.03,0.04,0.07,0.05,0.14l0.05,1.21c0.18-0.47,0.43-0.83,0.74-1.09c0.31-0.26,0.69-0.39,1.13-0.39
				c0.17,0,0.33,0.02,0.48,0.05c0.15,0.04,0.28,0.09,0.42,0.16l-0.08,0.38c-0.01,0.06-0.05,0.09-0.11,0.09
				c-0.02,0-0.06-0.01-0.1-0.02c-0.04-0.02-0.09-0.03-0.16-0.05c-0.06-0.02-0.14-0.04-0.23-0.05c-0.09-0.02-0.2-0.02-0.32-0.02
				c-0.43,0-0.79,0.13-1.07,0.4c-0.28,0.27-0.5,0.66-0.68,1.16v3.73H308.87z"/>
		</g>
	</g>
	<g>
		<g>
			<defs>
				<rect id="SVGID_47_" y="11" width="392" height="30"/>
			</defs>
			<clipPath id="SVGID_48_">
				<use xlink:href="#SVGID_47_"  overflow="visible"/>
			</clipPath>
			<path clip-path="url(#SVGID_48_)" fill="#999999" d="M315.62,14.82c0.41,0,0.78,0.07,1.1,0.21c0.32,0.14,0.6,0.34,0.82,0.6
				c0.22,0.26,0.39,0.57,0.51,0.93s0.17,0.77,0.17,1.22c0,0.45-0.06,0.86-0.17,1.22c-0.12,0.36-0.29,0.67-0.51,0.93
				c-0.22,0.26-0.5,0.46-0.82,0.59c-0.33,0.14-0.69,0.21-1.1,0.21c-0.41,0-0.78-0.07-1.1-0.21c-0.32-0.14-0.6-0.34-0.82-0.59
				c-0.22-0.26-0.4-0.57-0.51-0.93c-0.12-0.36-0.18-0.77-0.18-1.22c0-0.45,0.06-0.86,0.18-1.22c0.12-0.37,0.29-0.67,0.51-0.93
				c0.22-0.26,0.5-0.46,0.82-0.6C314.84,14.89,315.21,14.82,315.62,14.82 M315.62,20.29c0.34,0,0.64-0.06,0.9-0.18
				c0.26-0.12,0.47-0.28,0.64-0.5c0.17-0.22,0.3-0.48,0.38-0.79s0.13-0.66,0.13-1.04c0-0.38-0.04-0.73-0.13-1.04
				c-0.08-0.31-0.21-0.58-0.38-0.8s-0.38-0.39-0.64-0.51c-0.25-0.12-0.55-0.18-0.9-0.18s-0.64,0.06-0.9,0.18
				c-0.25,0.12-0.47,0.29-0.64,0.51s-0.3,0.49-0.39,0.8c-0.09,0.31-0.13,0.66-0.13,1.04c0,0.38,0.04,0.73,0.13,1.04
				s0.21,0.57,0.39,0.79c0.17,0.22,0.38,0.39,0.64,0.5C314.98,20.23,315.28,20.29,315.62,20.29"/>
		</g>
	</g>
	<g>
		<g>
			<defs>
				<rect id="SVGID_49_" y="11" width="392" height="30"/>
			</defs>
			<clipPath id="SVGID_50_">
				<use xlink:href="#SVGID_49_"  overflow="visible"/>
			</clipPath>
			<path clip-path="url(#SVGID_50_)" fill="#999999" d="M319.67,20.65v-5.74h0.3c0.1,0,0.16,0.05,0.17,0.14l0.05,0.83
				c0.11-0.16,0.23-0.3,0.36-0.43c0.13-0.13,0.26-0.24,0.41-0.34c0.14-0.09,0.3-0.17,0.46-0.22c0.16-0.05,0.33-0.08,0.52-0.08
				c0.42,0,0.75,0.12,1,0.37c0.25,0.24,0.42,0.58,0.51,1.02c0.07-0.24,0.17-0.44,0.29-0.62c0.12-0.17,0.27-0.32,0.43-0.43
				s0.34-0.2,0.53-0.25c0.19-0.06,0.38-0.08,0.58-0.08c0.28,0,0.54,0.05,0.76,0.14c0.23,0.09,0.42,0.23,0.58,0.42
				c0.16,0.18,0.28,0.41,0.36,0.68s0.13,0.58,0.13,0.92v3.67h-0.55v-3.67c0-0.56-0.12-0.99-0.36-1.28
				c-0.24-0.29-0.59-0.44-1.04-0.44c-0.2,0-0.39,0.04-0.57,0.11c-0.18,0.07-0.34,0.18-0.48,0.33c-0.14,0.14-0.25,0.32-0.33,0.54
				c-0.08,0.22-0.12,0.47-0.12,0.75v3.67h-0.55v-3.67c0-0.56-0.11-0.98-0.33-1.28c-0.22-0.29-0.55-0.44-0.97-0.44
				c-0.31,0-0.6,0.09-0.87,0.28c-0.26,0.19-0.5,0.45-0.71,0.78v4.33h-0.56V20.65z"/>
		</g>
	</g>
</g>
</svg>
